<svg width="450" height="254" viewBox="0 0 450 254" fill="none" xmlns="http://www.w3.org/2000/svg">
<path fill-rule="evenodd" clip-rule="evenodd" d="M449.494 208.887L-7.88783e-06 208.887L-7.79939e-06 209.393L449.494 209.393L449.494 208.887Z" fill="url(#paint0_linear_221_6815)"/>
<path fill-rule="evenodd" clip-rule="evenodd" d="M244.454 0.471263L244.454 254L244.96 254L244.96 0.471263L244.454 0.471263Z" fill="url(#paint1_linear_221_6815)"/>
<path fill-rule="evenodd" clip-rule="evenodd" d="M449.494 156.783L-1.69979e-05 156.784L-1.69094e-05 157.289L449.494 157.289L449.494 156.783Z" fill="url(#paint2_linear_221_6815)"/>
<path fill-rule="evenodd" clip-rule="evenodd" d="M193.194 0.471272L193.194 254L193.7 254L193.7 0.471272L193.194 0.471272Z" fill="url(#paint3_linear_221_6815)"/>
<path fill-rule="evenodd" clip-rule="evenodd" d="M449.494 0.471227L449.494 254L450 254L450 0.471227L449.494 0.471227Z" fill="url(#paint4_linear_221_6815)"/>
<path fill-rule="evenodd" clip-rule="evenodd" d="M449.494 104.679L-2.61081e-05 104.679L-2.60197e-05 105.185L449.494 105.185L449.494 104.679Z" fill="url(#paint5_linear_221_6815)"/>
<path fill-rule="evenodd" clip-rule="evenodd" d="M141.934 0.471281L141.934 254L142.44 254L142.44 0.471281L141.934 0.471281Z" fill="url(#paint6_linear_221_6815)"/>
<path fill-rule="evenodd" clip-rule="evenodd" d="M398.234 0.471236L398.234 254L398.74 254L398.74 0.471236L398.234 0.471236Z" fill="url(#paint7_linear_221_6815)"/>
<path fill-rule="evenodd" clip-rule="evenodd" d="M449.494 52.5757L-3.52181e-05 52.5758L-3.51297e-05 53.0816L449.494 53.0815L449.494 52.5757Z" fill="url(#paint8_linear_221_6815)"/>
<path fill-rule="evenodd" clip-rule="evenodd" d="M90.6737 0.47129L90.6738 254L91.1796 254L91.1796 0.47129L90.6737 0.47129Z" fill="url(#paint9_linear_221_6815)"/>
<path fill-rule="evenodd" clip-rule="evenodd" d="M346.974 0.471245L346.974 254L347.48 254L347.48 0.471245L346.974 0.471245Z" fill="url(#paint10_linear_221_6815)"/>
<path fill-rule="evenodd" clip-rule="evenodd" d="M39.4141 0.471299L39.4141 254L39.92 254L39.9199 0.471299L39.4141 0.471299Z" fill="url(#paint11_linear_221_6815)"/>
<path fill-rule="evenodd" clip-rule="evenodd" d="M295.714 0.471254L295.714 254L296.22 254L296.22 0.471254L295.714 0.471254Z" fill="url(#paint12_linear_221_6815)"/>
<rect opacity="0.3" width="50.7536" height="51.5982" transform="matrix(1 -1.74846e-07 -1.74846e-07 -1 91.1797 208.886)" fill="#E5E7EB"/>
<rect opacity="0.3" width="50.756" height="51.5985" transform="matrix(1 -1.74846e-07 -1.74846e-07 -1 142.441 156.784)" fill="#E5E7EB"/>
<defs>
<linearGradient id="paint0_linear_221_6815" x1="172.128" y1="254" x2="255.13" y2="18.1334" gradientUnits="userSpaceOnUse">
<stop stop-color="#E5E7EB"/>
<stop offset="1" stop-color="#E5E7EB" stop-opacity="0"/>
</linearGradient>
<linearGradient id="paint1_linear_221_6815" x1="172.128" y1="254" x2="255.13" y2="18.1334" gradientUnits="userSpaceOnUse">
<stop stop-color="#E5E7EB"/>
<stop offset="1" stop-color="#E5E7EB" stop-opacity="0"/>
</linearGradient>
<linearGradient id="paint2_linear_221_6815" x1="172.128" y1="254" x2="255.13" y2="18.1334" gradientUnits="userSpaceOnUse">
<stop stop-color="#E5E7EB"/>
<stop offset="1" stop-color="#E5E7EB" stop-opacity="0"/>
</linearGradient>
<linearGradient id="paint3_linear_221_6815" x1="172.128" y1="254" x2="255.13" y2="18.1334" gradientUnits="userSpaceOnUse">
<stop stop-color="#E5E7EB"/>
<stop offset="1" stop-color="#E5E7EB" stop-opacity="0"/>
</linearGradient>
<linearGradient id="paint4_linear_221_6815" x1="172.128" y1="254" x2="255.13" y2="18.1334" gradientUnits="userSpaceOnUse">
<stop stop-color="#E5E7EB"/>
<stop offset="1" stop-color="#E5E7EB" stop-opacity="0"/>
</linearGradient>
<linearGradient id="paint5_linear_221_6815" x1="172.128" y1="254" x2="255.13" y2="18.1334" gradientUnits="userSpaceOnUse">
<stop stop-color="#E5E7EB"/>
<stop offset="1" stop-color="#E5E7EB" stop-opacity="0"/>
</linearGradient>
<linearGradient id="paint6_linear_221_6815" x1="172.128" y1="254" x2="255.13" y2="18.1334" gradientUnits="userSpaceOnUse">
<stop stop-color="#E5E7EB"/>
<stop offset="1" stop-color="#E5E7EB" stop-opacity="0"/>
</linearGradient>
<linearGradient id="paint7_linear_221_6815" x1="172.128" y1="254" x2="255.13" y2="18.1334" gradientUnits="userSpaceOnUse">
<stop stop-color="#E5E7EB"/>
<stop offset="1" stop-color="#E5E7EB" stop-opacity="0"/>
</linearGradient>
<linearGradient id="paint8_linear_221_6815" x1="172.128" y1="254" x2="255.13" y2="18.1334" gradientUnits="userSpaceOnUse">
<stop stop-color="#E5E7EB"/>
<stop offset="1" stop-color="#E5E7EB" stop-opacity="0"/>
</linearGradient>
<linearGradient id="paint9_linear_221_6815" x1="172.128" y1="254" x2="255.13" y2="18.1334" gradientUnits="userSpaceOnUse">
<stop stop-color="#E5E7EB"/>
<stop offset="1" stop-color="#E5E7EB" stop-opacity="0"/>
</linearGradient>
<linearGradient id="paint10_linear_221_6815" x1="172.128" y1="254" x2="255.13" y2="18.1334" gradientUnits="userSpaceOnUse">
<stop stop-color="#E5E7EB"/>
<stop offset="1" stop-color="#E5E7EB" stop-opacity="0"/>
</linearGradient>
<linearGradient id="paint11_linear_221_6815" x1="172.128" y1="254" x2="255.13" y2="18.1334" gradientUnits="userSpaceOnUse">
<stop stop-color="#E5E7EB"/>
<stop offset="1" stop-color="#E5E7EB" stop-opacity="0"/>
</linearGradient>
<linearGradient id="paint12_linear_221_6815" x1="172.128" y1="254" x2="255.13" y2="18.1334" gradientUnits="userSpaceOnUse">
<stop stop-color="#E5E7EB"/>
<stop offset="1" stop-color="#E5E7EB" stop-opacity="0"/>
</linearGradient>
</defs>
</svg>
