<svg width="130" height="30" viewBox="0 0 130 30" fill="none" xmlns="http://www.w3.org/2000/svg">
<path fill-rule="evenodd" clip-rule="evenodd" d="M7.81277 23.0403C9.08099 23.5021 10.4498 23.7539 11.8769 23.7539C18.4364 23.7539 23.7539 18.4364 23.7539 11.877C23.7539 5.3175 18.4364 0 11.8769 0C5.31749 0 0 5.31758 0 11.877V28.8363C0 29.9068 1.3255 30.4072 2.03303 29.6038C3.95962 27.416 5.8862 25.2281 7.81277 23.0403ZM17.0682 11.877C17.0682 14.7441 14.7441 17.0683 11.8769 17.0683C9.00987 17.0683 6.68565 14.7441 6.68565 11.877C6.68565 9.00988 9.00987 6.68566 11.8769 6.68566C14.7441 6.68566 17.0682 9.00988 17.0682 11.877Z" fill="#3758F9"/>
<path fill-rule="evenodd" clip-rule="evenodd" d="M32.532 2.66016H41.7656C43.4317 2.66016 44.9125 2.96701 46.2012 3.58863C47.514 4.18993 48.5431 5.08378 49.281 6.26849C50.0227 7.43771 50.3864 8.85502 50.3864 10.5068C50.3864 12.1398 50.0108 13.557 49.2479 14.7467C48.5104 15.9085 47.4934 16.8013 46.2037 17.4239C44.9144 18.0463 43.4328 18.3535 41.7656 18.3535H37.4526V27.2234H32.532V2.66016ZM45.0178 8.70502C44.3668 7.57671 43.0882 7.06462 41.8301 7.06462H37.4526V13.9491H41.8301C43.8734 13.9491 45.4658 12.5695 45.4658 10.5068C45.4658 9.79293 45.3131 9.19742 45.0201 8.70897L45.0178 8.70502Z" fill="#232939"/>
<path fill-rule="evenodd" clip-rule="evenodd" d="M53.4467 27.2234V2.66016H58.3672V27.2234H53.4467Z" fill="#232939"/>
<path fill-rule="evenodd" clip-rule="evenodd" d="M67.0501 2.66016L74.9009 13.3249L82.5829 2.66016H87.1796V27.2234H82.2268V11.4235L75.2088 20.7726H74.4239L67.3757 11.1451V27.2234H62.4551V2.66016H67.0501Z" fill="#232939"/>
<path fill-rule="evenodd" clip-rule="evenodd" d="M128.69 14.942C128.69 22.0293 122.945 27.7747 115.857 27.7747C108.77 27.7747 103.025 22.0293 103.025 14.942C103.025 7.85473 108.77 2.10938 115.857 2.10938C122.945 2.10938 128.69 7.85473 128.69 14.942ZM115.857 22.8594C120.23 22.8594 123.774 19.3147 123.774 14.942C123.774 10.5693 120.23 7.02453 115.857 7.02453C111.485 7.02453 107.94 10.5693 107.94 14.942C107.94 19.3147 111.485 22.8594 115.857 22.8594Z" fill="#232939"/>
<path d="M91.8929 22.6577C92.873 22.6577 93.6176 22.3836 94.1587 21.8616C94.2319 21.791 94.3003 21.7174 94.3641 21.6407C94.7934 21.1263 95.0128 20.4744 95.0128 19.667V2.66016H99.9656V19.5057C99.9656 21.0285 99.6337 22.3761 98.9625 23.5402C98.3128 24.7045 97.3716 25.6106 96.1472 26.2567C94.9397 26.9047 93.5187 27.2234 91.8929 27.2234H90.239V22.6577H91.8929Z" fill="#232939"/>
</svg>
