<svg width="17" height="23" viewBox="0 0 17 23" fill="none" xmlns="http://www.w3.org/2000/svg">
<path fill-rule="evenodd" clip-rule="evenodd" d="M0 0H8.64595C10.206 0 11.5926 0.287323 12.7992 0.869379C14.0285 1.43241 14.9921 2.26937 15.683 3.37868C16.3775 4.47349 16.7181 5.80059 16.7181 7.34727C16.7181 8.87628 16.3664 10.2033 15.652 11.3173C14.9614 12.4052 14.0092 13.2411 12.8016 13.8241C11.5943 14.4069 10.207 14.6946 8.64595 14.6946H4.60739V22.9999H0V0ZM11.6912 5.66014C11.0816 4.60363 9.8844 4.12415 8.70634 4.12415H4.60739V10.5704H8.70634C10.6196 10.5704 12.1107 9.27868 12.1107 7.34727C12.1107 6.67881 11.9677 6.1212 11.6933 5.66384L11.6912 5.66014Z" fill="#232939"/>
</svg>
