<svg width="23" height="28" viewBox="0 0 23 28" fill="none" xmlns="http://www.w3.org/2000/svg">
<path fill-rule="evenodd" clip-rule="evenodd" d="M7.29192 21.5043C8.47559 21.9353 9.75319 22.1703 11.0851 22.1703C17.2073 22.1703 22.1703 17.2073 22.1703 11.0852C22.1703 4.963 17.2073 0 11.0851 0C4.96299 0 0 4.96307 0 11.0852V26.9139C0 27.913 1.23714 28.3801 1.8975 27.6302C3.69564 25.5882 5.49378 23.5462 7.29192 21.5043ZM15.9303 11.0852C15.9303 13.7611 13.7611 15.9304 11.0851 15.9304C8.40921 15.9304 6.23994 13.7611 6.23994 11.0852C6.23994 8.40922 8.40921 6.23995 11.0851 6.23995C13.7611 6.23995 15.9303 8.40922 15.9303 11.0852Z" fill="#3758F9"/>
</svg>
